<?xml version="1.0" encoding="utf-8"?>
<!-- Generator: Adobe Illustrator 26.3.0, SVG Export Plug-In . SVG Version: 6.00 Build 0)  -->
<svg version="1.1" id="Layer_1" xmlns="http://www.w3.org/2000/svg" xmlns:xlink="http://www.w3.org/1999/xlink" x="0px" y="0px"
	 viewBox="0 0 819.31 160.24" style="enable-background:new 0 0 819.31 160.24;" xml:space="preserve">
<style type="text/css">
	.st0{fill:#FFFFFF;}
	.st1{fill:none;}
	.st2{fill:#EF863F;}
</style>
<g>
	<g>
		<g>
			<path class="st0" d="M395.61,160.24c1.88-3.75,37.84-93.68,37.84-93.68h13.13l38.77,93.68h-60.87l8.44-20.74h21.99l-14.44-35.72
				l-22.98,56.46H395.61z"/>
		</g>
		<g>
			<path class="st1" d="M319.27,160.24c-0.01,0-0.02,0-0.03,0c-0.07,0-0.14,0-0.21,0h11.28c-1.48,0-2.96-0.01-4.44-0.01
				C323.67,160.22,321.47,160.22,319.27,160.24z"/>
			<path class="st0" d="M305.53,138.97c-3.06,0.01-6.23-0.01-9.01-1.29c-4.64-2.14-7.09-7.27-8.39-12.21
				c-1.88-7.19-2.07-14.81-0.55-22.09c0.82-3.94,2.18-7.85,4.68-11s6.28-5.46,10.3-5.47c10.26-0.05,20.51-0.06,30.77-0.05
				c3.82-6.75,7.64-13.51,11.46-20.26c-13.94,0-27.88,0-41.82,0c-1.21,0-2.43,0.03-3.64,0.1c-8.44,0.48-15.71,3.68-20.93,10.49
				c-4.07,5.31-7.07,12.09-8.65,18.58c-2.22,9.12-2.23,18.66-1.14,27.98c0.76,6.52,2.08,13.06,4.9,18.99
				c2.81,5.93,7.24,11.26,13.08,14.26c3.93,2.02,8.27,2.89,12.7,3.23h19.74c0.07,0,0.14,0,0.21,0c0.01,0,0.02,0,0.03,0
				c2.2-0.01,4.4-0.02,6.6-0.01c1.48,0,2.96,0.01,4.44,0.01h7.18c0-7.12,0-14.24,0-21.35C326.83,138.91,316.18,138.94,305.53,138.97
				z"/>
		</g>
		<g>
			<g>
				<path class="st2" d="M811.88,153.47c0-3.23,0-6.46,0-9.69c0-1.66,0-3.32,0-4.98c-4.24,0-8.48,0-12.72,0
					c-6.46,0-12.93-0.06-19.39,0.15c-3.79,0.13-7.79-0.13-11.05-2.73c-2.99-2.39-5.03-6.29-6.12-10.32
					c-3.25-11.94-2.2-31.86,8.86-37.68c3.29-1.73,6.77-1.43,10.28-1.44c8.67-0.02,17.34-0.02,26-0.02l11.57-20.22
					c-13.5,0-26.37-0.02-39.87-0.05c-4.06-0.01-8.14-0.02-12.12,0.89c-17.35,3.94-24.86,25.81-25.13,44.84
					c-0.28,19.54,5.89,41.41,23.34,46.62c2.87,0.86,5.83,1.26,8.8,1.39h37.51c0,0,0.02,0,0.02,0
					C811.92,157.98,811.88,155.73,811.88,153.47z"/>
			</g>
		</g>
		<g>
			<polygon class="st0" points="422.39,66.66 413.38,86.88 389.65,86.88 389.65,160.24 370.89,160.24 370.89,86.88 343.63,86.88 
				354.46,66.66 			"/>
		</g>
		<g>
			<path class="st0" d="M189.84,118.08V66.56h18.54v51.53c0,17.17,5.71,23.42,17.12,23.42c9.99,0,17.12-6.25,17.12-23.42V66.56
				h17.12v51.53c0,28.11-12.84,42.16-34.24,42.16C202.68,160.24,189.84,146.19,189.84,118.08z"/>
		</g>
		<g>
			<path class="st2" d="M623.04,126.42v33.82h-19.02v-33.82l-30.91-59.83h21.89l18.52,36.9l18.17-36.9h22.25L623.04,126.42z"/>
		</g>
		<g>
			<path class="st2" d="M734.14,66.82v93.42h-19.01l-34.92-56.86v56.86h-18.23V66.82h18.34l34.6,56.86V66.82H734.14z"/>
		</g>
		<g>
			<g>
				<path class="st2" d="M546.55,103.96c6.8,0,11.97,2.12,15.51,6.37c3.54,4.25,5.31,10.66,5.31,19.25c0,4.76-0.44,9.05-1.33,12.88
					c-0.88,3.83-2.29,7.05-4.23,9.66c-1.94,2.61-4.41,4.62-7.42,6.02c-3.01,1.4-6.62,2.1-10.82,2.1H491.9l11.03-24.08h41.96
					c2.04,0,3.54-0.54,4.48-1.61c0.94-1.07,1.41-2.82,1.41-5.25c0-2.43-0.47-4.15-1.41-5.18c-0.94-1.03-2.43-1.54-4.48-1.54H514.7
					c-3.59,0-6.69-0.65-9.29-1.96c-2.6-1.31-4.76-3.13-6.47-5.46c-1.71-2.33-2.98-5.16-3.81-8.47c-0.83-3.31-1.24-6.98-1.24-10.99
					c0-4.39,0.46-8.38,1.37-11.97c0.91-3.59,2.32-6.65,4.23-9.17c1.91-2.52,4.37-4.48,7.38-5.88c3.01-1.4,6.62-2.1,10.82-2.1h48.18
					l-11.03,24.36h-38.48c-1.99,0-3.47,0.47-4.44,1.4c-0.97,0.93-1.45,2.61-1.45,5.04c0,2.43,0.48,4.13,1.45,5.11
					c0.97,0.98,2.45,1.47,4.44,1.47H546.55z"/>
			</g>
		</g>
	</g>
	<g>
		<polygon class="st2" points="184.8,155.22 184.8,160.24 128.01,160.24 128.01,155.22 129.93,155.22 129.93,151.44 183.09,151.44 
			183.09,155.22 		"/>
		<polygon class="st2" points="169.68,125.85 135.39,143.62 128.98,131.8 135.89,128.23 130.16,117.18 56.62,154.3 44.87,160.23 
			52.06,145.49 56.56,136.27 122.38,102.16 116.97,91.72 109.35,95.67 102.8,83.62 137.98,65.39 142.47,73.95 144.44,77.72 
			136.29,81.96 155.42,118.85 163.75,114.54 164.51,115.99 		"/>
		<path class="st0" d="M133.67,57.34L98.44,75.51l-6.46-11.84l-35.41,72.61l-4.5,9.21l-7.19,14.75H0C3.84,153.82,77.56,0,77.56,0
			h26.92L133.67,57.34z"/>
	</g>
</g>
</svg>
