<?xml version="1.0" encoding="utf-8"?>
<!-- Generator: Adobe Illustrator 26.3.0, SVG Export Plug-In . SVG Version: 6.00 Build 0)  -->
<svg version="1.1" id="Layer_1" xmlns="http://www.w3.org/2000/svg" xmlns:xlink="http://www.w3.org/1999/xlink" x="0px" y="0px"
	 viewBox="0 0 789.66 789.66" style="enable-background:new 0 0 789.66 789.66;" xml:space="preserve">
<style type="text/css">
	.st0{fill:#021F49;}
	.st1{fill:#EF863F;}
	.st2{fill:#FFFFFF;}
</style>
<g>
	<circle class="st0" cx="394.83" cy="394.83" r="394.83"/>
	<g>
		<polygon class="st1" points="667.26,616.25 667.26,631.05 499.83,631.05 499.83,616.25 505.47,616.25 505.47,605.1 662.23,605.1 
			662.23,616.25 		"/>
		<polygon class="st1" points="622.69,529.66 521.59,582.04 502.67,547.21 523.04,536.67 506.15,504.09 289.34,613.53 
			254.68,631.03 275.89,587.56 289.16,560.39 483.22,459.81 467.26,429.04 444.82,440.68 425.5,405.14 529.21,351.39 542.44,376.65 
			548.26,387.76 524.23,400.24 580.63,509.02 605.19,496.33 607.44,500.6 		"/>
		<path class="st2" d="M516.51,327.66l-103.89,53.57l-19.05-34.92L289.16,560.39l-13.27,27.16l-21.21,43.48H122.4
			c11.33-18.92,228.67-472.43,228.67-472.43h79.37L516.51,327.66z"/>
	</g>
</g>
</svg>
