<svg width="92" height="26" viewBox="0 0 92 26" fill="none" xmlns="http://www.w3.org/2000/svg">
<g clip-path="url(#clip0_350_1692)">
<path d="M91.9366 0.00317383V19.4217H86.6954V0.00317383H91.9366Z" fill="white"/>
<path d="M84.7617 6.55107V19.4485H80.1011V18.3385C79.5133 18.8211 78.8396 19.1891 78.0914 19.4485C77.34 19.723 76.5274 19.8617 75.6543 19.8617C74.5569 19.8617 73.5416 19.6898 72.6084 19.3459C71.6746 18.984 70.862 18.4954 70.1712 17.877C69.4798 17.2587 68.9311 16.5348 68.5251 15.7114C68.14 14.8699 67.9478 13.965 67.9478 13.0028C67.9478 12.0406 68.14 11.1448 68.5251 10.3213C68.9311 9.47983 69.4798 8.7469 70.1712 8.12857C70.862 7.51023 71.6746 7.02761 72.6084 6.68376C73.5416 6.32185 74.5569 6.14087 75.6543 6.14087C76.5274 6.14087 77.34 6.2796 78.0914 6.55408C78.8434 6.81348 79.5133 7.18147 80.1011 7.66405V6.55408H84.7617V6.55107ZM76.5027 15.9406C77.4574 15.9406 78.2374 15.6662 78.8467 15.1142C79.4775 14.5652 79.791 13.8594 79.791 12.9998C79.791 12.1401 79.4775 11.4344 78.8467 10.8854C78.2374 10.3364 77.4541 10.0589 76.5027 10.0589C75.5513 10.0589 74.7569 10.3334 74.1261 10.8854C73.5168 11.4344 73.2105 12.1401 73.2105 12.9998C73.2105 13.8594 73.5168 14.5652 74.1261 15.1142C74.7569 15.6631 75.5474 15.9406 76.5027 15.9406Z" fill="white"/>
<path d="M60.4743 0C61.8571 0 63.0327 0.162877 64.0089 0.488633C64.9851 0.814385 65.8081 1.26984 66.478 1.85499C67.1694 2.45824 67.707 3.14594 68.0921 3.9181C68.4766 4.69328 68.6695 5.52574 68.6695 6.42158C68.6695 7.31742 68.4766 8.14989 68.0921 8.92506C67.707 9.70023 67.1694 10.3879 66.478 10.9882C65.8081 11.5733 64.9851 12.0288 64.0089 12.3545C63.0327 12.6803 61.8571 12.8432 60.4743 12.8432H57.9446V19.4457H52.6108V0H60.471H60.4743ZM59.7119 8.84664C60.4247 8.84664 60.9696 8.78633 61.3579 8.66566C61.764 8.52693 62.0989 8.35501 62.3628 8.14989C62.9115 7.71856 63.1858 7.14248 63.1858 6.42158C63.1858 5.70069 62.9115 5.1246 62.3628 4.69328C62.0989 4.48817 61.764 4.32227 61.3579 4.20464C60.9734 4.06589 60.4247 3.99954 59.7119 3.99954H57.9446V8.84966H59.7119V8.84664Z" fill="white"/>
<path d="M32.9671 6.55127H38.757L42.687 12.7406H42.7476L46.25 6.55127H51.6123L40.1252 26H34.7913L40.0326 17.1021L32.9635 6.55127H32.9671Z" fill="white"/>
<path d="M31.9292 6.55107V19.4485H27.2688V18.3385C26.6809 18.8211 26.0074 19.1891 25.2592 19.4485C24.5074 19.723 23.695 19.8617 22.8221 19.8617C21.7247 19.8617 20.7092 19.6898 19.7757 19.3459C18.8422 18.984 18.0298 18.4954 17.3386 17.877C16.6474 17.2587 16.0987 16.5348 15.6925 15.7114C15.3077 14.8699 15.1153 13.965 15.1153 13.0028C15.1153 12.0406 15.3077 11.1448 15.6925 10.3213C16.0987 9.47983 16.6474 8.7469 17.3386 8.12857C18.0298 7.51023 18.8422 7.02761 19.7757 6.68376C20.7092 6.32185 21.7247 6.14087 22.8221 6.14087C23.695 6.14087 24.5074 6.2796 25.2592 6.55408C26.011 6.81348 26.6809 7.18147 27.2688 7.66405V6.55408H31.9292V6.55107ZM23.6701 15.9406C24.625 15.9406 25.4053 15.6662 26.0181 15.1142C26.6488 14.5652 26.9623 13.8594 26.9623 12.9998C26.9623 12.1401 26.6488 11.4344 26.0181 10.8854C25.4089 10.3364 24.625 10.0589 23.6701 10.0589C22.7152 10.0589 21.9242 10.3334 21.2936 10.8854C20.6843 11.4344 20.3779 12.1401 20.3779 12.9998C20.3779 13.8594 20.6843 14.5652 21.2936 15.1142C21.9242 15.6631 22.7152 15.9406 23.6701 15.9406Z" fill="white"/>
<path d="M7.85999 0C9.24247 0 10.4183 0.162877 11.3946 0.488633C12.3708 0.814385 13.1938 1.26984 13.8637 1.85499C14.555 2.45824 15.093 3.14594 15.4778 3.9181C15.8626 4.69328 16.0549 5.52574 16.0549 6.42158C16.0549 7.31742 15.8626 8.14989 15.4778 8.92506C15.093 9.70023 14.555 10.3879 13.8637 10.9882C13.1938 11.5733 12.3708 12.0288 11.3946 12.3545C10.4183 12.6803 9.24247 12.8432 7.85999 12.8432H5.33028V19.4457H0V0H7.85999ZM7.10108 8.84664C7.81372 8.84664 8.35883 8.78633 8.74722 8.66566C9.15339 8.52693 9.48834 8.35501 9.752 8.14989C10.3007 7.71856 10.575 7.14248 10.575 6.42158C10.575 5.70069 10.3007 5.1246 9.752 4.69328C9.48834 4.48817 9.15339 4.32227 8.74722 4.20464C8.36241 4.06589 7.81372 3.99954 7.10108 3.99954H5.33384V8.84966H7.10108V8.84664Z" fill="white"/>
</g>
<defs>
<clipPath id="clip0_350_1692">
<rect width="92" height="26" fill="white"/>
</clipPath>
</defs>
</svg>
