<svg width="66" height="28" viewBox="0 0 66 28" fill="none" xmlns="http://www.w3.org/2000/svg">
<path fill-rule="evenodd" clip-rule="evenodd" d="M65.3846 14.2625C65.3846 9.54525 63.1325 5.823 58.828 5.823C54.5053 5.823 51.89 9.54525 51.89 14.2257C51.89 19.7722 54.9776 22.5731 59.4092 22.5731C61.5705 22.5731 63.2051 22.0756 64.4402 21.3754V17.69C63.2051 18.3165 61.7885 18.7034 59.9904 18.7034C58.2286 18.7034 56.6667 18.0769 56.4669 15.9025H65.3483C65.3483 15.663 65.3846 14.7048 65.3846 14.2625ZM56.4124 12.512C56.4124 10.4297 57.6656 9.56367 58.8098 9.56367C59.9177 9.56367 61.0983 10.4297 61.0983 12.512H56.4124Z" fill="white"/>
<path fill-rule="evenodd" clip-rule="evenodd" d="M44.8793 5.823C43.0993 5.823 41.9551 6.67064 41.3194 7.2603L41.0833 6.11783H37.0876V27.6037L41.6282 26.627L41.6463 21.4122C42.3002 21.8913 43.2628 22.5731 44.8611 22.5731C48.1122 22.5731 51.0726 19.9196 51.0726 14.0783C51.0545 8.73446 48.0577 5.823 44.8793 5.823ZM43.7895 18.5192C42.7179 18.5192 42.0822 18.1322 41.6463 17.6531L41.6282 10.8167C42.1004 10.2823 42.7543 9.91378 43.7895 9.91378C45.4423 9.91378 46.5865 11.7933 46.5865 14.2073C46.5865 16.6765 45.4604 18.5192 43.7895 18.5192Z" fill="white"/>
<path fill-rule="evenodd" clip-rule="evenodd" d="M30.8397 4.73573L35.3985 3.74067V0L30.8397 0.976629V4.73573Z" fill="white"/>
<path d="M35.3985 6.13623H30.8397V22.2598H35.3985V6.13623Z" fill="white"/>
<path fill-rule="evenodd" clip-rule="evenodd" d="M25.954 7.49987L25.6634 6.13627H21.7404V22.2599H26.281V11.3327C27.3525 9.9138 29.1688 10.1718 29.7318 10.3745V6.13627C29.1506 5.91515 27.0256 5.50975 25.954 7.49987Z" fill="white"/>
<path fill-rule="evenodd" clip-rule="evenodd" d="M16.8729 2.13745L12.4413 3.09565L12.4231 17.8557C12.4231 20.5828 14.4391 22.5914 17.1272 22.5914C18.6165 22.5914 19.7062 22.315 20.3056 21.9833V18.2426C19.7244 18.4822 16.8547 19.3298 16.8547 16.6026V10.061H20.3056V6.1361H16.8547L16.8729 2.13745Z" fill="white"/>
<path fill-rule="evenodd" clip-rule="evenodd" d="M4.59509 10.8167C4.59509 10.0981 5.17628 9.82165 6.13889 9.82165C7.51923 9.82165 9.26282 10.2455 10.6432 11.001V6.67064C9.13568 6.06255 7.64637 5.823 6.13889 5.823C2.45192 5.823 0 7.77626 0 11.0378C0 16.1237 6.90171 15.3129 6.90171 17.5057C6.90171 18.3533 6.17521 18.6297 5.15812 18.6297C3.65064 18.6297 1.72543 18.0032 0.199786 17.1556V21.5412C1.88889 22.2783 3.59615 22.5915 5.15812 22.5915C8.9359 22.5915 11.5331 20.6936 11.5331 17.3951C11.515 11.9039 4.59509 12.8805 4.59509 10.8167Z" fill="white"/>
</svg>
