<svg width="104" height="23" viewBox="0 0 104 23" fill="none" xmlns="http://www.w3.org/2000/svg">
<path d="M42.3358 4.65725H46.4784L47.1585 0.788086H42.985L42.3358 4.65725Z" fill="white"/>
<path d="M41.903 7.16504H46.0455L43.3869 22.57C43.2014 22.6775 42.614 22.9283 41.7793 22.9283C40.6973 22.9283 39.6771 22.4267 39.6771 20.6713C39.6771 20.3488 39.708 19.9548 39.8008 19.5249C40.6046 14.7242 41.903 7.16504 41.903 7.16504Z" fill="white"/>
<path d="M83.2049 6.84277C80.4226 6.84277 79.3405 8.7057 78.815 9.88794H78.7841L78.9387 7.20103H74.827C74.7961 7.77424 74.6415 9.63717 74.3633 11.2493C74.3633 11.2493 73.4359 16.8023 73.2195 17.9129C73.0958 18.7369 72.8176 19.9549 72.8176 20.6356C72.8176 22.1403 73.4668 23.0001 74.9198 23.0001C75.7545 23.0001 76.3418 22.7135 76.5582 22.6418L77.9185 14.6169C78.3204 12.3957 79.6806 10.9627 81.3191 10.9627C82.6484 10.9627 83.2667 12.1091 83.2667 13.0048C83.2667 13.8288 83.1121 14.6886 82.9576 15.4409L82.3702 18.8802C82.2774 19.2742 82.1229 20.0982 82.1229 20.7073C82.1229 22.2478 82.8648 22.9643 84.2869 22.9643C85.0597 22.9643 85.5235 22.7493 85.8944 22.606L87.131 15.4051C87.4093 13.7571 87.4711 12.8973 87.4711 11.8584C87.5329 8.88483 86.049 6.84277 83.2049 6.84277Z" fill="white"/>
<path d="M65.0581 6.84277C60.0808 6.84277 56.8966 10.497 56.8966 15.9066C56.8966 19.8474 59.0606 22.9284 63.5123 22.9284C68.2423 22.9284 71.6738 19.525 71.6738 13.6855C71.6738 9.81629 69.3552 6.84277 65.0581 6.84277ZM63.7287 19.2026C61.9048 19.2026 61.0701 17.8054 61.0701 15.7633C61.0701 13.3272 62.3685 10.5686 64.6562 10.5686C66.6347 10.5686 67.3766 12.1091 67.3766 13.6855C67.4385 17.1605 65.8 19.2026 63.7287 19.2026Z" fill="white"/>
<path d="M47.9003 19.2025C47.8075 19.7399 47.7457 20.1698 47.7457 20.5997C47.7457 22.3551 48.7659 22.8925 49.8479 22.8925C50.7135 22.8925 51.27 22.6059 51.4555 22.5343L53.434 10.8551H56.68L57.2983 7.12928H54.0523L54.2069 6.23364C54.516 4.51402 55.1961 3.72586 56.4018 3.72586C57.2365 3.72586 57.8548 3.90498 58.0712 3.94081L58.6895 0.39408C58.4112 0.286604 57.2365 0 55.4743 0C52.6611 0 50.8372 2.00623 50.2807 5.15888L49.9406 7.09346H47.8384L47.2202 10.8551H49.3223C49.3533 10.9268 48.4877 15.7274 47.9003 19.2025Z" fill="white"/>
<path d="M38.3478 6.84277C36.2765 6.84277 35.1017 8.52657 34.6689 9.88794H34.638L34.7926 7.20103H30.65C30.6191 8.09667 30.4646 9.70882 30.0318 12.145C29.5989 14.6527 29.1971 17.1247 28.7952 19.525C28.7024 19.9191 28.6715 20.349 28.6715 20.7073C28.6715 21.9612 29.228 22.9643 30.8355 22.9643C31.6084 22.9643 32.1649 22.7493 32.4431 22.606L33.6488 15.4409C34.0816 12.7182 34.8853 10.9269 37.2039 10.9269C38.255 10.9269 39.2752 11.2135 39.4607 11.2493L40.1717 7.12938C40.0172 7.05773 39.3989 6.84277 38.3478 6.84277Z" fill="white"/>
<path d="M102.835 13.5422C102.835 8.88483 100.177 6.84277 96.6216 6.84277C91.2734 6.84277 89.0785 12.0375 89.0785 15.9066C89.0785 19.7758 91.2425 22.9284 95.6015 22.9284C98.7548 22.9284 100.579 21.2805 100.579 19.1309V18.7369C100.3 18.8802 98.662 19.4892 97.1781 19.4892C93.9012 19.4892 93.0665 17.5546 93.1283 16.4082H102.557C102.588 15.9425 102.835 14.6886 102.835 13.5422ZM98.6929 13.3989H93.4065C93.8084 12.0733 94.6431 10.5328 96.6216 10.5328C98.1983 10.5686 98.9093 12.0017 98.6929 13.3989Z" fill="white"/>
<path d="M27.6512 13.5422C27.6512 8.88483 24.9925 6.84277 21.4374 6.84277C16.0582 6.84277 13.8633 12.0375 13.8633 15.9066C13.8633 19.7758 16.0273 22.9284 20.3863 22.9284C23.5395 22.9284 25.3635 21.2805 25.3635 19.1309V18.7369C25.0853 18.8802 23.4468 19.4892 21.9629 19.4892C18.686 19.4892 17.8513 17.5546 17.9131 16.4082H27.342C27.4348 15.9425 27.6512 14.6886 27.6512 13.5422ZM23.5086 13.3989H18.1913C18.5932 12.0733 19.4279 10.5328 21.4064 10.5328C23.014 10.5686 23.725 12.0017 23.5086 13.3989Z" fill="white"/>
<path d="M0.384644 1.93481H4.55811V17.2323C4.55811 19.5252 5.54738 20.7074 7.12402 20.7074C7.2786 20.7074 7.40225 20.6716 7.40225 20.6716C6.69122 21.8896 5.7947 22.8928 3.72342 22.8928C1.5594 22.9286 0.384644 21.1373 0.384644 18.522V1.93481Z" fill="white"/>
<path d="M5.70203 15.6559V17.2323C5.70203 18.7728 6.44398 19.346 7.21684 19.346C8.05153 19.346 8.45342 18.7011 8.85531 17.9846C9.50452 16.7665 17.6351 1.89893 17.6351 1.89893H13.307L5.70203 15.6559Z" fill="white"/>
</svg>
