<svg width="71" height="23" viewBox="0 0 71 23" fill="none" xmlns="http://www.w3.org/2000/svg">
<g clip-path="url(#clip0_350_1700)">
<path d="M46.2596 0C41.2249 0 36.7045 2.62471 36.7045 7.44118C36.7045 12.9882 44.6897 13.3671 44.6897 16.1271C44.6897 17.2906 43.3363 18.3459 41.0625 18.3459C37.8143 18.3459 35.3782 16.8847 35.3782 16.8847L34.3496 21.7553C34.3496 21.7553 37.1376 23 40.873 23C46.395 23 50.7259 20.2671 50.7259 15.3424C50.7259 9.49765 42.7137 9.11882 42.7137 6.54824C42.7137 5.62824 43.8235 4.62706 46.0972 4.62706C48.6687 4.62706 50.78 5.68235 50.78 5.68235L51.8086 0.974118C51.7815 0.974118 49.4807 0 46.2596 0ZM0.135341 0.351765L0 1.05529C0 1.05529 2.11132 1.43412 4.03317 2.21882C6.49638 3.11176 6.65879 3.62588 7.09188 5.22235L11.6123 22.6212H17.6756L26.96 0.351765H20.9238L14.9417 15.5047L12.5055 2.65176C12.289 1.19059 11.1521 0.351765 9.74457 0.351765H0.135341ZM29.3961 0.351765L24.6592 22.6212H30.4247L35.1346 0.351765H29.3961ZM61.499 0.351765C60.1186 0.351765 59.3877 1.08235 58.8464 2.38118L50.4011 22.6212H56.4373L57.6012 19.2388H64.9638L65.6676 22.6212H71L66.3713 0.351765H61.499ZM62.284 6.38588L64.0705 14.7471H59.2794L62.284 6.38588Z" fill="white"/>
</g>
<defs>
<clipPath id="clip0_350_1700">
<rect width="71" height="23" fill="white"/>
</clipPath>
</defs>
</svg>
